<svg width="200" height="188" fill="none" xmlns="http://www.w3.org/2000/svg"><path fill-rule="evenodd" clip-rule="evenodd" d="M94.01 12c4.596 0 8.502 3.184 10.298 7.414C111.935 37.386 129.832 50 150.694 50c23.628 0 43.453-16.181 48.862-38 .158-.64.28-1.313.373-2.011.727-5.475-4.222-9.989-9.745-9.989H50.054v12H94.01zm34.279 0c-6.831 0-11.531 6.808-7.184 12.077A38.263 38.263 0 00150.694 38a38.638 38.638 0 0029.745-13.939c4.364-5.254-.328-12.061-7.158-12.061h-44.992z" fill="#fff"/><path d="M50.053 12V0C22.41 0 0 22.386 0 50s22.41 50 50.053 50V88C29.026 88 12 70.975 12 50s17.025-38 38.053-38z" fill="#fff"/><path fill-rule="evenodd" clip-rule="evenodd" d="M105.99 176c-4.596 0-8.502-3.184-10.298-7.414C88.065 150.614 70.168 138 49.306 138 25.678 138 5.853 154.181.444 176c-.158.639-.28 1.313-.373 2.011C-.656 183.486 4.293 188 9.816 188h140.131v-12H105.99zm-34.279 0c6.831 0 11.531-6.808 7.184-12.077A38.26 38.26 0 0049.306 150a38.638 38.638 0 00-29.745 13.939c-4.364 5.254.328 12.061 7.158 12.061h44.992z" fill="#fff"/><path d="M149.947 176v12C177.591 188 200 165.614 200 138s-22.41-50-50.053-50v12C170.975 100 188 117.025 188 138s-17.025 38-38.053 38z" fill="#fff"/><path d="M50 88h100v12H50V88z" fill="#fff"/></svg>